<svg width="16" height="18" viewBox="0 0 16 18" fill="none" xmlns="http://www.w3.org/2000/svg">
<path d="M12.7141 12.8807C11.9336 13.6612 10.3013 15.2935 9.1782 16.4166C8.52733 17.0675 7.47311 17.0678 6.82223 16.4169C5.71866 15.3134 4.11803 13.7127 3.286 12.8807C0.6825 10.2772 0.6825 6.05612 3.286 3.45262C5.88949 0.849126 10.1106 0.849126 12.7141 3.45262C15.3176 6.05612 15.3176 10.2772 12.7141 12.8807Z" stroke="#ACADB9" stroke-width="1.25" stroke-linecap="round" stroke-linejoin="round"/>
<path d="M10.5 8.16667C10.5 9.54738 9.38075 10.6667 8.00004 10.6667C6.61933 10.6667 5.50004 9.54738 5.50004 8.16667C5.50004 6.78595 6.61933 5.66667 8.00004 5.66667C9.38075 5.66667 10.5 6.78595 10.5 8.16667Z" stroke="#ACADB9" stroke-width="1.25" stroke-linecap="round" stroke-linejoin="round"/>
</svg>
